<svg width="222" height="287" viewBox="0 0 222 287" fill="none" xmlns="http://www.w3.org/2000/svg">
<rect width="222" height="287" rx="18" fill="#CF4A4A"/>
<rect width="222" height="287" rx="18" fill="url(#paint0_radial_21_71)" fill-opacity="0.45"/>
<g filter="url(#filter0_i_21_71)">
<path d="M70.4998 127C69.6973 103.419 85.5394 101.315 95.4998 102.5L99.4998 106L122.5 129L98.4998 155L74.8753 131.694L70.4998 127Z" fill="white"/>
<path d="M122.244 177.748L73.6957 131.141C71.5141 129.047 70.0306 126.245 70.0618 123.221C70.2285 107.074 82.2894 102.44 91.4463 102.031C94.4234 101.897 97.1797 103.342 99.2646 105.471L146.03 153.231C147.712 154.949 148.965 157.095 149.201 159.488C150.546 173.118 140.283 178.959 131.713 180.853C128.26 181.616 124.795 180.196 122.244 177.748Z" stroke="white"/>
</g>
<defs>
<filter id="filter0_i_21_71" x="69.5613" y="101.522" width="80.2595" height="84.0382" filterUnits="userSpaceOnUse" color-interpolation-filters="sRGB">
<feFlood flood-opacity="0" result="BackgroundImageFix"/>
<feBlend mode="normal" in="SourceGraphic" in2="BackgroundImageFix" result="shape"/>
<feColorMatrix in="SourceAlpha" type="matrix" values="0 0 0 0 0 0 0 0 0 0 0 0 0 0 0 0 0 0 127 0" result="hardAlpha"/>
<feOffset dy="4"/>
<feGaussianBlur stdDeviation="2"/>
<feComposite in2="hardAlpha" operator="arithmetic" k2="-1" k3="1"/>
<feColorMatrix type="matrix" values="0 0 0 0 0 0 0 0 0 0 0 0 0 0 0 0 0 0 0.25 0"/>
<feBlend mode="normal" in2="shape" result="effect1_innerShadow_21_71"/>
</filter>
<radialGradient id="paint0_radial_21_71" cx="0" cy="0" r="1" gradientUnits="userSpaceOnUse" gradientTransform="translate(179.5 67.5) rotate(132.85) scale(263.937 204.16)">
<stop stop-color="white"/>
<stop offset="1" stop-color="white" stop-opacity="0"/>
</radialGradient>
</defs>
</svg>
