<svg width="222" height="287" viewBox="0 0 222 287" fill="none" xmlns="http://www.w3.org/2000/svg">
<g filter="url(#filter0_i_21_76)">
<rect width="222" height="287" rx="18" fill="#649136"/>
<rect width="222" height="287" rx="18" fill="url(#paint0_radial_21_76)" fill-opacity="0.45"/>
<path d="M71.4998 132C70.6973 108.419 86.5394 106.315 96.4998 107.5L100.5 111L123.5 134L99.4998 160L75.8753 136.694L71.4998 132Z" fill="white"/>
<path d="M123.244 182.748L74.6957 136.141C72.5141 134.047 71.0306 131.245 71.0618 128.221C71.2285 112.074 83.2894 107.44 92.4463 107.031C95.4234 106.897 98.1797 108.342 100.265 110.471L147.03 158.231C148.712 159.949 149.965 162.095 150.201 164.488C151.546 178.118 141.283 183.959 132.713 185.853C129.26 186.616 125.795 185.196 123.244 182.748Z" stroke="white"/>
</g>
<defs>
<filter id="filter0_i_21_76" x="0" y="0" width="222" height="291" filterUnits="userSpaceOnUse" color-interpolation-filters="sRGB">
<feFlood flood-opacity="0" result="BackgroundImageFix"/>
<feBlend mode="normal" in="SourceGraphic" in2="BackgroundImageFix" result="shape"/>
<feColorMatrix in="SourceAlpha" type="matrix" values="0 0 0 0 0 0 0 0 0 0 0 0 0 0 0 0 0 0 127 0" result="hardAlpha"/>
<feOffset dy="4"/>
<feGaussianBlur stdDeviation="2"/>
<feComposite in2="hardAlpha" operator="arithmetic" k2="-1" k3="1"/>
<feColorMatrix type="matrix" values="0 0 0 0 0 0 0 0 0 0 0 0 0 0 0 0 0 0 0.25 0"/>
<feBlend mode="normal" in2="shape" result="effect1_innerShadow_21_76"/>
</filter>
<radialGradient id="paint0_radial_21_76" cx="0" cy="0" r="1" gradientUnits="userSpaceOnUse" gradientTransform="translate(186.5 25.5) rotate(124.499) scale(304.561 235.584)">
<stop stop-color="white"/>
<stop offset="1" stop-color="white" stop-opacity="0"/>
</radialGradient>
</defs>
</svg>
