<svg width="222" height="287" viewBox="0 0 222 287" fill="none" xmlns="http://www.w3.org/2000/svg">
<rect width="222" height="287" rx="18" fill="#CFCA4A"/>
<rect width="222" height="287" rx="18" fill="url(#paint0_radial_21_85)" fill-opacity="0.45"/>
<path d="M67 166L77 160" stroke="white" stroke-width="8"/>
<path d="M133 128L143 122" stroke="white" stroke-width="8"/>
<path d="M67.0302 121.95L76.9698 128.05" stroke="white" stroke-width="8"/>
<path d="M132.488 159.601L142.374 165.787" stroke="white" stroke-width="8"/>
<path d="M104.975 99.9949L105.069 111.656" stroke="white" stroke-width="8"/>
<path d="M104.975 176L105.069 187.661" stroke="white" stroke-width="8"/>
<path d="M61.0087 140.138C58.7996 140.133 57.0048 141.92 57 144.13C56.9952 146.339 58.7822 148.133 60.9914 148.138L61.0087 140.138ZM60.9914 148.138L72.6532 148.164L72.6706 140.164L61.0087 140.138L60.9914 148.138Z" fill="white"/>
<path d="M86.3593 105.029C85.1602 103.174 82.684 102.642 80.8286 103.841C78.9733 105.04 78.4414 107.516 79.6405 109.371L86.3593 105.029ZM79.6405 109.371L85.9708 119.166L92.6896 114.823L86.3593 105.029L79.6405 109.371Z" fill="white"/>
<path d="M66.9171 115L60.7158 124.876" stroke="white" stroke-width="8" stroke-linecap="round"/>
<path d="M67 173.009L61.0154 163" stroke="white" stroke-width="8" stroke-linecap="round"/>
<path d="M99.9863 191.036L111.647 190.84" stroke="white" stroke-width="8" stroke-linecap="round"/>
<path d="M147.475 162.749L142.158 173.128" stroke="white" stroke-width="8" stroke-linecap="round"/>
<path d="M149.515 124.986L143 115.314" stroke="white" stroke-width="8" stroke-linecap="round"/>
<path d="M110.66 96L98.9999 96.1962" stroke="white" stroke-width="8" stroke-linecap="round"/>
<path d="M130.493 109.484C131.865 107.753 131.574 105.237 129.842 103.865C128.111 102.493 125.595 102.784 124.223 104.516L130.493 109.484ZM124.223 104.516L116.98 113.656L123.25 118.624L130.493 109.484L124.223 104.516Z" fill="white"/>
<path d="M79.2848 179.62C78.085 181.475 78.6161 183.951 80.4711 185.151C82.326 186.35 84.8023 185.819 86.0021 183.964L79.2848 179.62ZM86.0021 183.964L92.3358 174.172L85.6185 169.828L79.2848 179.62L86.0021 183.964Z" fill="white"/>
<path d="M138 144.138L149.662 144.164" stroke="white" stroke-width="8" stroke-linecap="round"/>
<path d="M123.301 182.245C124.552 184.066 127.042 184.529 128.863 183.279C130.684 182.029 131.147 179.539 129.897 177.718L123.301 182.245ZM129.897 177.718L123.298 168.103L116.702 172.63L123.301 182.245L129.897 177.718Z" fill="white"/>
<circle cx="105" cy="144" r="33" fill="white"/>
<g filter="url(#filter0_i_21_85)">
<circle cx="94" cy="135" r="8" fill="#CFCA4A"/>
</g>
<g filter="url(#filter1_i_21_85)">
<circle cx="107" cy="157" r="10" fill="#CFCA4A"/>
</g>
<g filter="url(#filter2_i_21_85)">
<circle cx="117.5" cy="134.5" r="4.5" fill="#CFCA4A"/>
</g>
<defs>
<filter id="filter0_i_21_85" x="86" y="127" width="16" height="20" filterUnits="userSpaceOnUse" color-interpolation-filters="sRGB">
<feFlood flood-opacity="0" result="BackgroundImageFix"/>
<feBlend mode="normal" in="SourceGraphic" in2="BackgroundImageFix" result="shape"/>
<feColorMatrix in="SourceAlpha" type="matrix" values="0 0 0 0 0 0 0 0 0 0 0 0 0 0 0 0 0 0 127 0" result="hardAlpha"/>
<feOffset dy="4"/>
<feGaussianBlur stdDeviation="2"/>
<feComposite in2="hardAlpha" operator="arithmetic" k2="-1" k3="1"/>
<feColorMatrix type="matrix" values="0 0 0 0 0 0 0 0 0 0 0 0 0 0 0 0 0 0 0.25 0"/>
<feBlend mode="normal" in2="shape" result="effect1_innerShadow_21_85"/>
</filter>
<filter id="filter1_i_21_85" x="97" y="147" width="20" height="24" filterUnits="userSpaceOnUse" color-interpolation-filters="sRGB">
<feFlood flood-opacity="0" result="BackgroundImageFix"/>
<feBlend mode="normal" in="SourceGraphic" in2="BackgroundImageFix" result="shape"/>
<feColorMatrix in="SourceAlpha" type="matrix" values="0 0 0 0 0 0 0 0 0 0 0 0 0 0 0 0 0 0 127 0" result="hardAlpha"/>
<feOffset dy="4"/>
<feGaussianBlur stdDeviation="2"/>
<feComposite in2="hardAlpha" operator="arithmetic" k2="-1" k3="1"/>
<feColorMatrix type="matrix" values="0 0 0 0 0 0 0 0 0 0 0 0 0 0 0 0 0 0 0.25 0"/>
<feBlend mode="normal" in2="shape" result="effect1_innerShadow_21_85"/>
</filter>
<filter id="filter2_i_21_85" x="113" y="130" width="9" height="13" filterUnits="userSpaceOnUse" color-interpolation-filters="sRGB">
<feFlood flood-opacity="0" result="BackgroundImageFix"/>
<feBlend mode="normal" in="SourceGraphic" in2="BackgroundImageFix" result="shape"/>
<feColorMatrix in="SourceAlpha" type="matrix" values="0 0 0 0 0 0 0 0 0 0 0 0 0 0 0 0 0 0 127 0" result="hardAlpha"/>
<feOffset dy="4"/>
<feGaussianBlur stdDeviation="2"/>
<feComposite in2="hardAlpha" operator="arithmetic" k2="-1" k3="1"/>
<feColorMatrix type="matrix" values="0 0 0 0 0 0 0 0 0 0 0 0 0 0 0 0 0 0 0.25 0"/>
<feBlend mode="normal" in2="shape" result="effect1_innerShadow_21_85"/>
</filter>
<radialGradient id="paint0_radial_21_85" cx="0" cy="0" r="1" gradientUnits="userSpaceOnUse" gradientTransform="translate(6.50001 -9.69282e-06) rotate(53.8719) scale(355.33 274.854)">
<stop stop-color="white"/>
<stop offset="1" stop-color="white" stop-opacity="0"/>
</radialGradient>
</defs>
</svg>
