<svg width="222" height="287" viewBox="0 0 222 287" fill="none" xmlns="http://www.w3.org/2000/svg">
<rect width="222" height="287" rx="18" fill="#CF4A4A"/>
<rect width="222" height="287" rx="18" fill="url(#paint0_radial_21_14)" fill-opacity="0.45"/>
<path d="M67 164L77 158" stroke="white" stroke-width="8"/>
<path d="M133 126L143 120" stroke="white" stroke-width="8"/>
<path d="M67.0302 119.95L76.9698 126.05" stroke="white" stroke-width="8"/>
<path d="M132.488 157.601L142.374 163.787" stroke="white" stroke-width="8"/>
<path d="M104.975 97.9949L105.069 109.656" stroke="white" stroke-width="8"/>
<path d="M104.975 174L105.069 185.662" stroke="white" stroke-width="8"/>
<path d="M61.0087 138.138C58.7996 138.133 57.0048 139.92 57 142.13C56.9952 144.339 58.7822 146.133 60.9914 146.138L61.0087 138.138ZM60.9914 146.138L72.6532 146.164L72.6706 138.164L61.0087 138.138L60.9914 146.138Z" fill="white"/>
<path d="M86.3593 103.029C85.1602 101.174 82.684 100.642 80.8286 101.841C78.9733 103.04 78.4414 105.516 79.6405 107.371L86.3593 103.029ZM79.6405 107.371L85.9708 117.166L92.6896 112.823L86.3593 103.029L79.6405 107.371Z" fill="white"/>
<path d="M66.9171 113L60.7158 122.876" stroke="white" stroke-width="8" stroke-linecap="round"/>
<path d="M67 171.009L61.0154 161" stroke="white" stroke-width="8" stroke-linecap="round"/>
<path d="M99.9863 189.036L111.647 188.84" stroke="white" stroke-width="8" stroke-linecap="round"/>
<path d="M147.475 160.749L142.158 171.128" stroke="white" stroke-width="8" stroke-linecap="round"/>
<path d="M149.515 122.986L143 113.314" stroke="white" stroke-width="8" stroke-linecap="round"/>
<path d="M110.66 94L98.9999 94.1962" stroke="white" stroke-width="8" stroke-linecap="round"/>
<path d="M130.493 107.484C131.865 105.753 131.574 103.237 129.842 101.865C128.111 100.493 125.595 100.784 124.223 102.516L130.493 107.484ZM124.223 102.516L116.98 111.656L123.25 116.624L130.493 107.484L124.223 102.516Z" fill="white"/>
<path d="M79.2848 177.62C78.085 179.475 78.6161 181.951 80.4711 183.151C82.326 184.351 84.8023 183.819 86.0021 181.965L79.2848 177.62ZM86.0021 181.965L92.3358 172.172L85.6185 167.828L79.2848 177.62L86.0021 181.965Z" fill="white"/>
<path d="M138 142.138L149.662 142.164" stroke="white" stroke-width="8" stroke-linecap="round"/>
<path d="M123.301 180.245C124.552 182.066 127.042 182.529 128.863 181.279C130.684 180.029 131.147 177.539 129.897 175.718L123.301 180.245ZM129.897 175.718L123.298 166.103L116.702 170.63L123.301 180.245L129.897 175.718Z" fill="white"/>
<circle cx="105" cy="142" r="33" fill="white"/>
<g filter="url(#filter0_i_21_14)">
<circle cx="94" cy="133" r="8" fill="#CF4A4A"/>
</g>
<g filter="url(#filter1_i_21_14)">
<circle cx="107" cy="155" r="10" fill="#CF4A4A"/>
</g>
<g filter="url(#filter2_i_21_14)">
<circle cx="117.5" cy="132.5" r="4.5" fill="#CF4A4A"/>
</g>
<defs>
<filter id="filter0_i_21_14" x="86" y="125" width="16" height="20" filterUnits="userSpaceOnUse" color-interpolation-filters="sRGB">
<feFlood flood-opacity="0" result="BackgroundImageFix"/>
<feBlend mode="normal" in="SourceGraphic" in2="BackgroundImageFix" result="shape"/>
<feColorMatrix in="SourceAlpha" type="matrix" values="0 0 0 0 0 0 0 0 0 0 0 0 0 0 0 0 0 0 127 0" result="hardAlpha"/>
<feOffset dy="4"/>
<feGaussianBlur stdDeviation="2"/>
<feComposite in2="hardAlpha" operator="arithmetic" k2="-1" k3="1"/>
<feColorMatrix type="matrix" values="0 0 0 0 0 0 0 0 0 0 0 0 0 0 0 0 0 0 0.25 0"/>
<feBlend mode="normal" in2="shape" result="effect1_innerShadow_21_14"/>
</filter>
<filter id="filter1_i_21_14" x="97" y="145" width="20" height="24" filterUnits="userSpaceOnUse" color-interpolation-filters="sRGB">
<feFlood flood-opacity="0" result="BackgroundImageFix"/>
<feBlend mode="normal" in="SourceGraphic" in2="BackgroundImageFix" result="shape"/>
<feColorMatrix in="SourceAlpha" type="matrix" values="0 0 0 0 0 0 0 0 0 0 0 0 0 0 0 0 0 0 127 0" result="hardAlpha"/>
<feOffset dy="4"/>
<feGaussianBlur stdDeviation="2"/>
<feComposite in2="hardAlpha" operator="arithmetic" k2="-1" k3="1"/>
<feColorMatrix type="matrix" values="0 0 0 0 0 0 0 0 0 0 0 0 0 0 0 0 0 0 0.25 0"/>
<feBlend mode="normal" in2="shape" result="effect1_innerShadow_21_14"/>
</filter>
<filter id="filter2_i_21_14" x="113" y="128" width="9" height="13" filterUnits="userSpaceOnUse" color-interpolation-filters="sRGB">
<feFlood flood-opacity="0" result="BackgroundImageFix"/>
<feBlend mode="normal" in="SourceGraphic" in2="BackgroundImageFix" result="shape"/>
<feColorMatrix in="SourceAlpha" type="matrix" values="0 0 0 0 0 0 0 0 0 0 0 0 0 0 0 0 0 0 127 0" result="hardAlpha"/>
<feOffset dy="4"/>
<feGaussianBlur stdDeviation="2"/>
<feComposite in2="hardAlpha" operator="arithmetic" k2="-1" k3="1"/>
<feColorMatrix type="matrix" values="0 0 0 0 0 0 0 0 0 0 0 0 0 0 0 0 0 0 0.25 0"/>
<feBlend mode="normal" in2="shape" result="effect1_innerShadow_21_14"/>
</filter>
<radialGradient id="paint0_radial_21_14" cx="0" cy="0" r="1" gradientUnits="userSpaceOnUse" gradientTransform="translate(6.50001 -9.69282e-06) rotate(53.8719) scale(355.33 274.854)">
<stop stop-color="white"/>
<stop offset="1" stop-color="white" stop-opacity="0"/>
</radialGradient>
</defs>
</svg>
